<?xml version="1.0" encoding="UTF-8" standalone="no"?>
<!DOCTYPE svg PUBLIC "-//W3C//DTD SVG 1.1//EN" "http://www.w3.org/Graphics/SVG/1.1/DTD/svg11.dtd">
<svg width="100%" height="100%" viewBox="0 0 1200 480" version="1.1" xmlns="http://www.w3.org/2000/svg" xmlns:xlink="http://www.w3.org/1999/xlink" xml:space="preserve" xmlns:serif="http://www.serif.com/" style="fill-rule:evenodd;clip-rule:evenodd;stroke-linejoin:round;stroke-miterlimit:2;">
    <g id="Artboard1" transform="matrix(1,0,0,0.24,0,0)">
        <rect x="0" y="0" width="1200" height="2000" style="fill:none;"/>
        <g transform="matrix(0.3865,0,0,1.61042,-1833.33,-629.07)">
            <g transform="matrix(1,0,0,1,4479.22,284.132)">
                <path d="M470.152,1005.96L470.152,555.169L557.336,555.169L557.336,928.232L774.259,927.06L774.259,1005.96L470.152,1005.96Z" style="fill:rgb(230,81,84);"/>
            </g>
            <g transform="matrix(1,0,0,1,4612.1,284.132)">
                <path d="M659.499,1214C654.692,1214 650.082,1212.09 646.683,1208.69C643.284,1205.29 641.375,1200.68 641.375,1195.87L641.375,664.916C641.375,647.242 627.048,632.916 609.375,632.916L424.312,632.916L424.312,555.169L825.946,555.169L825.946,632.916L760.559,632.916C752.072,632.916 743.933,636.287 737.932,642.288C731.93,648.289 728.559,656.429 728.559,664.916C728.559,754.188 728.564,1111.11 728.565,1195.87C728.565,1200.68 726.655,1205.29 723.257,1208.69C719.858,1212.09 715.248,1214 710.441,1214C695.507,1214 674.432,1214 659.499,1214Z" style="fill:rgb(230,81,84);"/>
            </g>
            <g transform="matrix(1,0,0,1,4779.69,-30.1283)">
                <path d="M473.747,1448.95L473.747,555.169L641.842,555.169C685.584,555.169 718.99,557.266 742.059,561.46C774.416,566.853 801.53,577.115 823.401,592.245C845.272,607.374 862.874,628.571 876.206,655.835C889.539,683.099 896.205,713.059 896.205,745.716C896.205,801.742 878.379,849.154 842.726,887.952C807.073,926.751 742.564,947.169 649.388,947.169L560.931,947.169L560.931,1448.95L473.747,1448.95ZM560.931,869.421L650.83,869.429C707.156,869.429 747.153,857.917 770.821,836.945C794.49,815.973 806.324,786.462 806.324,748.412C806.324,720.849 799.358,697.255 785.427,677.631C771.495,658.007 753.145,645.05 730.375,638.758C715.694,634.863 688.58,632.916 649.033,632.916L560.931,632.916L560.931,869.421Z" style="fill:rgb(230,81,84);"/>
            </g>
        </g>
        <g transform="matrix(1,0,0,4.16667,1,-239.677)">
            <g transform="matrix(125,0,0,125,1071.61,371)">
            </g>
            <text x="248px" y="371px" style="font-family:'OpenSans-Light', 'Open Sans';font-weight:300;font-size:125px;fill:rgb(230,81,84);">The Love Party</text>
        </g>
    </g>
</svg>
