<?xml version="1.0" encoding="UTF-8" standalone="no"?>
<!DOCTYPE svg PUBLIC "-//W3C//DTD SVG 1.1//EN" "http://www.w3.org/Graphics/SVG/1.1/DTD/svg11.dtd">
<svg width="100%" height="100%" viewBox="0 0 2000 2000" version="1.1" xmlns="http://www.w3.org/2000/svg" xmlns:xlink="http://www.w3.org/1999/xlink" xml:space="preserve" xmlns:serif="http://www.serif.com/" style="fill-rule:evenodd;clip-rule:evenodd;stroke-linejoin:round;stroke-miterlimit:2;">
    <g transform="matrix(1,0,0,1,-2217.08,0)">
        <g id="New1---baked" serif:id="New1 - baked" transform="matrix(1,0,0,1,-2199.26,0)">
            <rect x="4416.33" y="0" width="2000" height="2000" style="fill:none;"/>
            <g transform="matrix(1.41621,0,0,1.41621,-2107.48,-432.618)">
                <g transform="matrix(1,0,0,1,4400.51,253.668)">
                    <path d="M470.152,1026.61L470.152,673.864L587.507,673.864L587.507,926.938L774.259,925.767L774.259,1026.61L470.152,1026.61Z" style="fill:rgb(230,81,84);"/>
                </g>
                <g transform="matrix(1,0,0,1,4533.39,253.668)">
                    <path d="M659.499,1214C654.692,1214 650.082,1212.09 646.683,1208.69C643.284,1205.29 641.375,1200.68 641.375,1195.87L641.375,664.916C641.375,647.242 627.048,632.916 609.375,632.916L337.264,632.916L337.264,568.225C337.264,543.267 357.497,523.034 382.455,523.034C507.39,523.034 856.449,523.034 981.384,523.034C1006.34,523.034 1026.57,543.267 1026.57,568.225L1026.57,587.725C1026.57,612.683 1006.34,632.916 981.384,632.916L812.276,632.916C803.789,632.916 795.649,636.287 789.648,642.288C783.647,648.289 780.276,656.429 780.276,664.916C780.276,754.188 780.28,1111.11 780.281,1195.87C780.282,1200.68 778.372,1205.29 774.973,1208.69C771.574,1212.09 766.964,1214 762.157,1214C747.224,1214 674.432,1214 659.499,1214Z" style="fill:rgb(230,81,84);"/>
                </g>
                <g transform="matrix(1.37263,0,0,1.37263,4524.45,-206.536)">
                    <path d="M473.747,1193.63L473.747,555.169L641.842,555.169C685.584,555.169 718.99,557.266 742.059,561.46C774.416,566.853 801.53,577.115 823.401,592.245C845.272,607.374 862.874,628.571 876.206,655.835C889.539,683.099 896.205,713.059 896.205,745.716C896.205,801.742 878.379,849.154 842.726,887.952C807.073,926.751 742.564,947.169 649.388,947.169L572.863,947.169L572.863,1193.63L473.747,1193.63ZM572.863,869.421L650.83,869.429C707.156,869.429 747.153,857.917 770.821,836.945C794.49,815.973 806.324,786.462 806.324,748.412C806.324,720.849 799.358,697.255 785.427,677.631C771.495,658.007 753.145,645.05 730.375,638.758C715.694,634.863 688.58,632.916 649.033,632.916L572.863,632.916L572.863,869.421Z" style="fill:rgb(230,81,84);"/>
                </g>
            </g>
        </g>
    </g>
</svg>
