<?xml version="1.0" encoding="UTF-8" standalone="no"?>
<!DOCTYPE svg PUBLIC "-//W3C//DTD SVG 1.1//EN" "http://www.w3.org/Graphics/SVG/1.1/DTD/svg11.dtd">
<svg width="100%" height="100%" viewBox="0 0 1200 480" version="1.1" xmlns="http://www.w3.org/2000/svg" xmlns:xlink="http://www.w3.org/1999/xlink" xml:space="preserve" xmlns:serif="http://www.serif.com/" style="fill-rule:evenodd;clip-rule:evenodd;stroke-linejoin:round;stroke-miterlimit:2;">
    <g transform="matrix(1,0,0,1,-424,-1356)">
        <g id="Artboard1" transform="matrix(1,0,0,0.24,424,1356)">
            <rect x="0" y="0" width="1200" height="2000" style="fill:none;"/>
            <g transform="matrix(0.40123,0,0,1.67179,-1911.59,-691.156)">
                <g transform="matrix(1,0,0,1,4479.22,284.132)">
                    <path d="M470.152,1026.61L470.152,650.493L557.336,650.493L557.336,948.88L774.259,947.709L774.259,1026.61L470.152,1026.61Z" style="fill:rgb(230,81,84);"/>
                </g>
                <g transform="matrix(1,0,0,1,4612.1,284.132)">
                    <path d="M659.499,1214C654.692,1214 650.082,1212.09 646.683,1208.69C643.284,1205.29 641.375,1200.68 641.375,1195.87L641.375,664.916C641.375,647.242 627.048,632.916 609.375,632.916L337.264,632.916L337.264,632.915C337.264,612.295 345.455,592.52 360.036,577.94C374.616,563.36 394.391,555.169 415.01,555.169C552.906,555.169 825.946,555.169 825.946,555.169L825.946,632.916L760.559,632.916C752.072,632.916 743.933,636.287 737.932,642.288C731.93,648.289 728.559,656.429 728.559,664.916C728.559,754.188 728.564,1111.11 728.565,1195.87C728.565,1200.68 726.655,1205.29 723.257,1208.69C719.858,1212.09 715.248,1214 710.441,1214C695.507,1214 674.432,1214 659.499,1214Z" style="fill:rgb(230,81,84);"/>
                </g>
                <g transform="matrix(1,0,0,1,4779.69,-30.1283)">
                    <path d="M473.747,1448.95L473.747,555.169L641.842,555.169C685.584,555.169 718.99,557.266 742.059,561.46C774.416,566.853 801.53,577.115 823.401,592.245C845.272,607.374 862.874,628.571 876.206,655.835C889.539,683.099 896.205,713.059 896.205,745.716C896.205,801.742 878.379,849.154 842.726,887.952C807.073,926.751 742.564,947.169 649.388,947.169L560.931,947.169L560.931,1448.95L473.747,1448.95ZM560.931,869.421L650.83,869.429C707.156,869.429 747.153,857.917 770.821,836.945C794.49,815.973 806.324,786.462 806.324,748.412C806.324,720.849 799.358,697.255 785.427,677.631C771.495,658.007 753.145,645.05 730.375,638.758C715.694,634.863 688.58,632.916 649.033,632.916L560.931,632.916L560.931,869.421Z" style="fill:rgb(230,81,84);"/>
                </g>
            </g>
            <g transform="matrix(1,0,0,4.16667,1,-239.677)">
                <g transform="matrix(125,0,0,125,248,371)">
                    <path d="M0.287,-0L0.236,-0L0.236,-0.668L0.005,-0.668L0.005,-0.714L0.519,-0.714L0.519,-0.668L0.287,-0.668L0.287,-0Z" style="fill:rgb(230,81,84);fill-rule:nonzero;"/>
                </g>
                <g transform="matrix(125,0,0,125,313.552,371)">
                    <path d="M0.137,-0.76L0.137,-0.512C0.137,-0.497 0.137,-0.484 0.136,-0.472C0.136,-0.459 0.135,-0.447 0.134,-0.434L0.138,-0.434C0.146,-0.454 0.159,-0.472 0.176,-0.488C0.192,-0.504 0.212,-0.517 0.237,-0.526C0.261,-0.536 0.289,-0.541 0.321,-0.541C0.361,-0.541 0.395,-0.534 0.423,-0.52C0.45,-0.506 0.471,-0.485 0.485,-0.457C0.5,-0.428 0.507,-0.392 0.507,-0.347L0.507,-0L0.458,-0L0.458,-0.344C0.458,-0.397 0.446,-0.436 0.422,-0.46C0.398,-0.485 0.363,-0.498 0.317,-0.498C0.278,-0.498 0.245,-0.49 0.218,-0.475C0.192,-0.46 0.171,-0.437 0.158,-0.406C0.144,-0.376 0.137,-0.338 0.137,-0.292L0.137,-0L0.088,-0L0.088,-0.76L0.137,-0.76Z" style="fill:rgb(230,81,84);fill-rule:nonzero;"/>
                </g>
                <g transform="matrix(125,0,0,125,387.343,371)">
                    <path d="M0.289,-0.541C0.334,-0.541 0.372,-0.53 0.402,-0.509C0.432,-0.488 0.455,-0.459 0.469,-0.422C0.484,-0.386 0.492,-0.343 0.492,-0.296L0.492,-0.26L0.108,-0.26C0.108,-0.187 0.125,-0.131 0.159,-0.092C0.193,-0.053 0.241,-0.034 0.304,-0.034C0.337,-0.034 0.365,-0.036 0.389,-0.042C0.414,-0.047 0.441,-0.056 0.47,-0.069L0.47,-0.024C0.444,-0.012 0.418,-0.004 0.392,0.002C0.366,0.007 0.336,0.01 0.302,0.01C0.249,0.01 0.204,-0.001 0.167,-0.024C0.131,-0.046 0.104,-0.077 0.085,-0.118C0.067,-0.159 0.058,-0.206 0.058,-0.261C0.058,-0.314 0.066,-0.361 0.084,-0.404C0.102,-0.446 0.128,-0.48 0.162,-0.504C0.197,-0.529 0.239,-0.541 0.289,-0.541ZM0.289,-0.499C0.238,-0.499 0.197,-0.482 0.165,-0.448C0.134,-0.414 0.115,-0.366 0.11,-0.302L0.44,-0.302C0.44,-0.341 0.435,-0.375 0.424,-0.405C0.413,-0.434 0.396,-0.457 0.374,-0.474C0.351,-0.49 0.323,-0.499 0.289,-0.499Z" style="fill:rgb(230,81,84);fill-rule:nonzero;"/>
                </g>
                <g transform="matrix(125,0,0,125,488.479,371)">
                    <path d="M0.101,-0L0.101,-0.714L0.151,-0.714L0.151,-0.046L0.491,-0.046L0.491,-0L0.101,-0Z" style="fill:rgb(230,81,84);fill-rule:nonzero;"/>
                </g>
                <g transform="matrix(125,0,0,125,552.565,371)">
                    <path d="M0.528,-0.266C0.528,-0.225 0.523,-0.188 0.513,-0.154C0.503,-0.12 0.488,-0.091 0.468,-0.067C0.448,-0.042 0.424,-0.024 0.394,-0.01C0.365,0.003 0.331,0.01 0.292,0.01C0.254,0.01 0.221,0.003 0.192,-0.01C0.163,-0.023 0.139,-0.042 0.119,-0.066C0.099,-0.091 0.084,-0.12 0.073,-0.154C0.063,-0.187 0.058,-0.225 0.058,-0.266C0.058,-0.323 0.067,-0.372 0.086,-0.413C0.105,-0.455 0.133,-0.486 0.168,-0.508C0.204,-0.53 0.247,-0.541 0.296,-0.541C0.348,-0.541 0.391,-0.529 0.425,-0.506C0.459,-0.483 0.485,-0.451 0.502,-0.409C0.52,-0.368 0.528,-0.32 0.528,-0.266ZM0.108,-0.266C0.108,-0.22 0.115,-0.179 0.128,-0.144C0.142,-0.109 0.162,-0.082 0.189,-0.063C0.216,-0.043 0.251,-0.033 0.292,-0.033C0.335,-0.033 0.37,-0.043 0.397,-0.063C0.425,-0.082 0.445,-0.109 0.458,-0.145C0.471,-0.18 0.478,-0.22 0.478,-0.266C0.478,-0.311 0.471,-0.35 0.459,-0.385C0.447,-0.42 0.427,-0.448 0.4,-0.468C0.374,-0.488 0.339,-0.498 0.296,-0.498C0.234,-0.498 0.188,-0.477 0.156,-0.436C0.124,-0.395 0.108,-0.338 0.108,-0.266Z" style="fill:rgb(230,81,84);fill-rule:nonzero;"/>
                </g>
                <g transform="matrix(125,0,0,125,625.869,371)">
                    <path d="M0.204,-0L0,-0.531L0.052,-0.531L0.188,-0.169C0.197,-0.147 0.205,-0.126 0.211,-0.106C0.218,-0.086 0.223,-0.068 0.228,-0.052L0.23,-0.052C0.236,-0.068 0.242,-0.086 0.248,-0.106C0.255,-0.127 0.262,-0.147 0.271,-0.169L0.407,-0.531L0.459,-0.531L0.255,-0L0.204,-0Z" style="fill:rgb(230,81,84);fill-rule:nonzero;"/>
                </g>
                <g transform="matrix(125,0,0,125,683.303,371)">
                    <path d="M0.289,-0.541C0.334,-0.541 0.372,-0.53 0.402,-0.509C0.432,-0.488 0.455,-0.459 0.469,-0.422C0.484,-0.386 0.492,-0.343 0.492,-0.296L0.492,-0.26L0.108,-0.26C0.108,-0.187 0.125,-0.131 0.159,-0.092C0.193,-0.053 0.241,-0.034 0.304,-0.034C0.337,-0.034 0.365,-0.036 0.389,-0.042C0.414,-0.047 0.441,-0.056 0.47,-0.069L0.47,-0.024C0.444,-0.012 0.418,-0.004 0.392,0.002C0.366,0.007 0.336,0.01 0.302,0.01C0.249,0.01 0.204,-0.001 0.167,-0.024C0.131,-0.046 0.104,-0.077 0.085,-0.118C0.067,-0.159 0.058,-0.206 0.058,-0.261C0.058,-0.314 0.066,-0.361 0.084,-0.404C0.102,-0.446 0.128,-0.48 0.162,-0.504C0.197,-0.529 0.239,-0.541 0.289,-0.541ZM0.289,-0.499C0.238,-0.499 0.197,-0.482 0.165,-0.448C0.134,-0.414 0.115,-0.366 0.11,-0.302L0.44,-0.302C0.44,-0.341 0.435,-0.375 0.424,-0.405C0.413,-0.434 0.396,-0.457 0.374,-0.474C0.351,-0.49 0.323,-0.499 0.289,-0.499Z" style="fill:rgb(230,81,84);fill-rule:nonzero;"/>
                </g>
                <g transform="matrix(125,0,0,125,784.438,371)">
                    <path d="M0.276,-0.714C0.361,-0.714 0.424,-0.698 0.467,-0.665C0.509,-0.632 0.53,-0.582 0.53,-0.513C0.53,-0.478 0.525,-0.447 0.513,-0.42C0.502,-0.392 0.485,-0.37 0.463,-0.351C0.44,-0.333 0.412,-0.319 0.379,-0.309C0.345,-0.3 0.306,-0.295 0.261,-0.295L0.151,-0.295L0.151,-0L0.101,-0L0.101,-0.714L0.276,-0.714ZM0.271,-0.669L0.151,-0.669L0.151,-0.339L0.256,-0.339C0.302,-0.339 0.342,-0.345 0.375,-0.355C0.408,-0.366 0.434,-0.384 0.452,-0.409C0.47,-0.434 0.479,-0.468 0.479,-0.511C0.479,-0.566 0.462,-0.606 0.428,-0.632C0.394,-0.657 0.341,-0.669 0.271,-0.669Z" style="fill:rgb(230,81,84);fill-rule:nonzero;"/>
                </g>
                <g transform="matrix(125,0,0,125,857.558,371)">
                    <path d="M0.273,-0.54C0.332,-0.54 0.375,-0.525 0.404,-0.496C0.433,-0.467 0.448,-0.42 0.448,-0.356L0.448,-0L0.41,-0L0.401,-0.093L0.398,-0.093C0.387,-0.073 0.373,-0.055 0.356,-0.04C0.34,-0.024 0.32,-0.012 0.297,-0.003C0.273,0.005 0.244,0.01 0.21,0.01C0.176,0.01 0.147,0.004 0.123,-0.007C0.099,-0.019 0.08,-0.035 0.067,-0.057C0.053,-0.079 0.047,-0.105 0.047,-0.137C0.047,-0.189 0.069,-0.23 0.112,-0.257C0.156,-0.285 0.219,-0.3 0.3,-0.304L0.399,-0.309L0.399,-0.347C0.399,-0.402 0.388,-0.44 0.367,-0.463C0.345,-0.486 0.313,-0.498 0.271,-0.498C0.244,-0.498 0.218,-0.495 0.193,-0.488C0.167,-0.481 0.142,-0.471 0.116,-0.458L0.1,-0.499C0.125,-0.511 0.153,-0.521 0.182,-0.528C0.211,-0.536 0.242,-0.54 0.273,-0.54ZM0.398,-0.27L0.306,-0.266C0.238,-0.263 0.187,-0.251 0.152,-0.23C0.117,-0.209 0.099,-0.178 0.099,-0.136C0.099,-0.103 0.11,-0.077 0.131,-0.059C0.152,-0.041 0.181,-0.032 0.218,-0.032C0.277,-0.032 0.321,-0.049 0.352,-0.082C0.383,-0.115 0.398,-0.16 0.398,-0.218L0.398,-0.27Z" style="fill:rgb(230,81,84);fill-rule:nonzero;"/>
                </g>
                <g transform="matrix(125,0,0,125,923.781,371)">
                    <path d="M0.299,-0.54C0.313,-0.54 0.326,-0.539 0.339,-0.538C0.351,-0.536 0.363,-0.534 0.374,-0.531L0.366,-0.485C0.355,-0.488 0.344,-0.49 0.333,-0.492C0.322,-0.493 0.31,-0.494 0.297,-0.494C0.272,-0.494 0.25,-0.489 0.23,-0.48C0.211,-0.471 0.194,-0.457 0.18,-0.439C0.167,-0.422 0.156,-0.401 0.149,-0.376C0.142,-0.351 0.138,-0.324 0.138,-0.293L0.138,-0L0.088,-0L0.088,-0.531L0.131,-0.531L0.136,-0.431L0.139,-0.431C0.147,-0.451 0.158,-0.47 0.173,-0.486C0.188,-0.503 0.206,-0.516 0.227,-0.525C0.248,-0.535 0.272,-0.54 0.299,-0.54Z" style="fill:rgb(230,81,84);fill-rule:nonzero;"/>
                </g>
                <g transform="matrix(125,0,0,125,972.426,371)">
                    <path d="M0.231,-0.033C0.247,-0.033 0.261,-0.034 0.274,-0.036C0.287,-0.038 0.299,-0.041 0.309,-0.045L0.309,-0.004C0.299,-0 0.286,0.003 0.272,0.006C0.258,0.008 0.243,0.01 0.226,0.01C0.196,0.01 0.171,0.004 0.151,-0.007C0.132,-0.018 0.117,-0.035 0.106,-0.058C0.096,-0.081 0.091,-0.111 0.091,-0.146L0.091,-0.49L0.012,-0.49L0.012,-0.519L0.091,-0.534L0.108,-0.659L0.141,-0.659L0.141,-0.531L0.306,-0.531L0.306,-0.49L0.141,-0.49L0.141,-0.149C0.141,-0.111 0.148,-0.082 0.162,-0.062C0.176,-0.043 0.199,-0.033 0.231,-0.033Z" style="fill:rgb(230,81,84);fill-rule:nonzero;"/>
                </g>
                <g transform="matrix(125,0,0,125,1014.24,371)">
                    <path d="M0,-0.531L0.053,-0.531L0.182,-0.194C0.189,-0.174 0.196,-0.156 0.202,-0.139C0.208,-0.122 0.214,-0.107 0.218,-0.093C0.223,-0.079 0.227,-0.067 0.229,-0.055L0.232,-0.055C0.237,-0.07 0.244,-0.089 0.252,-0.113C0.26,-0.137 0.269,-0.163 0.28,-0.192L0.407,-0.531L0.46,-0.531L0.218,0.1C0.206,0.13 0.193,0.156 0.179,0.177C0.165,0.199 0.149,0.215 0.13,0.226C0.111,0.237 0.088,0.242 0.062,0.242C0.049,0.242 0.039,0.241 0.029,0.24C0.019,0.238 0.01,0.235 0,0.232L0,0.19C0.009,0.193 0.018,0.195 0.027,0.197C0.036,0.198 0.045,0.199 0.056,0.199C0.075,0.199 0.091,0.195 0.104,0.188C0.118,0.18 0.13,0.168 0.141,0.152C0.151,0.136 0.161,0.116 0.171,0.091L0.207,-0.003L0,-0.531Z" style="fill:rgb(230,81,84);fill-rule:nonzero;"/>
                </g>
            </g>
        </g>
    </g>
</svg>
