<?xml version="1.0" encoding="UTF-8" standalone="no"?>
<!DOCTYPE svg PUBLIC "-//W3C//DTD SVG 1.1//EN" "http://www.w3.org/Graphics/SVG/1.1/DTD/svg11.dtd">
<svg width="100%" height="100%" viewBox="0 0 800 800" version="1.1" xmlns="http://www.w3.org/2000/svg" xmlns:xlink="http://www.w3.org/1999/xlink" xml:space="preserve" xmlns:serif="http://www.serif.com/" style="fill-rule:evenodd;clip-rule:evenodd;stroke-linejoin:round;stroke-miterlimit:2;">
    <g transform="matrix(25,0,0,25,0,0)">
        <path d="M12.932,20.459L12.932,11.542L20.771,16.001L12.932,20.459ZM30.368,8.735C30.014,7.434 29.014,6.428 27.743,6.072L27.716,6.066C24.523,5.66 20.83,5.428 17.082,5.428C16.701,5.428 16.321,5.43 15.942,5.435L16,5.434C15.678,5.43 15.299,5.427 14.918,5.427C11.17,5.427 7.475,5.659 3.848,6.108L4.282,6.064C2.985,6.427 1.985,7.432 1.638,8.707L1.632,8.733C1.232,10.842 1.004,13.269 1.004,15.749C1.004,15.837 1.004,15.925 1.005,16.012L1.005,15.998C1.005,16.072 1.004,16.16 1.004,16.248C1.004,18.728 1.233,21.154 1.67,23.507L1.632,23.263C1.986,24.564 2.986,25.57 4.257,25.926L4.284,25.932C7.477,26.338 11.17,26.57 14.918,26.57C15.298,26.57 15.678,26.568 16.058,26.563L16,26.564C16.322,26.568 16.702,26.571 17.082,26.571C20.831,26.571 24.525,26.339 28.152,25.89L27.718,25.934C29.016,25.572 30.016,24.566 30.364,23.291L30.37,23.265C30.769,21.156 30.997,18.729 30.997,16.25C30.997,16.162 30.997,16.074 30.996,15.987L30.996,16C30.996,15.926 30.997,15.838 30.997,15.75C30.997,13.27 30.768,10.844 30.331,8.491L30.369,8.735L30.368,8.735Z" style="fill:white;fill-rule:nonzero;"/>
    </g>
</svg>
